<svg width="343" height="182" viewBox="0 0 343 182" fill="none" xmlns="http://www.w3.org/2000/svg">
<path d="M0.800001 11H17.2V39.6H66.2V11H82.4V95.6H0.800001V11ZM17.2 52.8V82.2H66.2V52.8H17.2ZM77.8 46.4H129V60.2H77.8V46.4ZM124 0.799993H140.6V105.6H124V0.799993ZM23.4 114.8H140.6V179.2H23.4V114.8ZM124.4 128H39.6V165.8H124.4V128ZM219.784 10.2H233.584V28.6C233.584 63.4 213.984 92.2 183.784 104L174.984 90.6C202.184 80.6 219.784 56.2 219.784 28.6V10.2ZM222.784 10.2H236.384V29.8C236.384 54.2 254.384 76.8 280.384 85.8L271.584 98.8C242.584 88 222.784 61.2 222.784 29.8V10.2ZM299.584 0.799993H316.184V110.4H299.584V0.799993ZM311.584 47.4H342.984V61.4H311.584V47.4ZM258.584 115.4C295.584 115.4 317.984 127.6 317.984 148.4C317.984 169.2 295.584 181.2 258.584 181.2C221.584 181.2 199.184 169.2 199.184 148.4C199.184 127.6 221.584 115.4 258.584 115.4ZM258.584 128.6C231.784 128.6 215.384 135.8 215.384 148.4C215.384 161 231.784 168.2 258.584 168.2C285.384 168.2 301.784 161 301.784 148.4C301.784 135.8 285.384 128.6 258.584 128.6Z" fill="black"/>
</svg>
